<svg xmlns="http://www.w3.org/2000/svg" xmlns:xlink="http://www.w3.org/1999/xlink" id="Capa_1" width="512" height="512" x="0" style="enable-background:new 0 0 511.626 511.627" y="0" version="1.1" viewBox="0 0 511.626 511.627" xml:space="preserve"><g><g><g><rect width="17.699" height="401.707" x="134.761" y="54.816" fill="#9EFFD3" class="active-path" data-old_color="#000000" data-original="#000000"/><rect width="8.848" height="401.707" x="98.786" y="54.816" fill="#9EFFD3" class="active-path" data-old_color="#000000" data-original="#000000"/><rect width="8.852" height="401.707" x="197.568" y="54.816" fill="#9EFFD3" class="active-path" data-old_color="#000000" data-original="#000000"/><rect width="8.852" height="401.707" x="179.581" y="54.816" fill="#9EFFD3" class="active-path" data-old_color="#000000" data-original="#000000"/><rect width="9.136" height="401.707" x="26.84" y="54.816" fill="#9EFFD3" class="active-path" data-old_color="#000000" data-original="#000000"/><rect width="8.851" height="401.707" x="53.959" y="54.816" fill="#9EFFD3" class="active-path" data-old_color="#000000" data-original="#000000"/><rect width="17.987" height="401.994" y="54.816" fill="#9EFFD3" class="active-path" data-old_color="#000000" data-original="#000000"/><rect width="8.852" height="401.707" x="215.557" y="54.816" fill="#9EFFD3" class="active-path" data-old_color="#000000" data-original="#000000"/><rect width="17.986" height="401.707" x="394.856" y="54.816" fill="#9EFFD3" class="active-path" data-old_color="#000000" data-original="#000000"/><rect width="26.837" height="401.707" x="439.966" y="54.816" fill="#9EFFD3" class="active-path" data-old_color="#000000" data-original="#000000"/><rect width="9.134" height="401.707" x="475.653" y="54.816" fill="#9EFFD3" class="active-path" data-old_color="#000000" data-original="#000000"/><rect width="17.986" height="401.994" x="493.64" y="54.816" fill="#9EFFD3" class="active-path" data-old_color="#000000" data-original="#000000"/><rect width="17.987" height="401.707" x="332.045" y="54.816" fill="#9EFFD3" class="active-path" data-old_color="#000000" data-original="#000000"/><rect width="17.987" height="401.707" x="368.019" y="54.816" fill="#9EFFD3" class="active-path" data-old_color="#000000" data-original="#000000"/><rect width="17.986" height="401.707" x="296.072" y="54.816" fill="#9EFFD3" class="active-path" data-old_color="#000000" data-original="#000000"/><rect width="17.989" height="401.707" x="251.243" y="54.816" fill="#9EFFD3" class="active-path" data-old_color="#000000" data-original="#000000"/></g></g></g></svg>