<svg xmlns="http://www.w3.org/2000/svg" xmlns:xlink="http://www.w3.org/1999/xlink" id="Capa_1" width="512" height="512" x="0" style="enable-background:new 0 0 510 510" y="0" version="1.1" viewBox="0 0 510 510" xml:space="preserve"><g><g><g id="play-install"><path fill="#9EFFD3" d="M459,114.75H357v-51l-51-51H204l-51,51v51H51c-28.05,0-51,22.95-51,51v280.5c0,28.05,22.95,51,51,51h408 c28.05,0,51-22.95,51-51v-280.5C510,137.7,487.05,114.75,459,114.75z M204,63.75h102v51H204V63.75z M216.75,408l-89.25-89.25 l35.7-35.7l53.55,53.55L349.35,204l35.7,35.7L216.75,408z" class="active-path" data-old_color="#NPM IN" data-original="#000000"/></g></g></g></svg>