<svg xmlns="http://www.w3.org/2000/svg" xmlns:xlink="http://www.w3.org/1999/xlink" id="Capa_1" x="0" y="0" version="1.1" viewBox="0 0 58 58" xml:space="preserve" style="enable-background:new 0 0 58 58"><g><rect style="fill:#f9eab0" width="53.001" height="30" x="1.999" y="13"/><path style="fill:#556080" d="M4,20.95C2.267,20.755,0.841,14.591,0.276,13H0v30h4V20.95z"/><path style="fill:#556080" d="M57.724,15c-0.566,1.591-1.991,5.755-3.724,5.95V43h4V15H57.724z"/><path style="fill:#ed7161" d="M10,11L10,11l3-5V0H6.896C5.849,0,5,0.849,5,1.896V6l-5,5l0,0H10z"/><polygon style="fill:#f3d55b" points="20 11 20 11 21 6 21 0 13 0 13 6 10 11 10 11"/><polygon style="fill:#ed7161" points="29 11 29 11 29 6 29 0 21 0 21 6 20 11 20 11"/><path style="fill:#d36259" d="M5.5,21h-1C2.015,21,0,18.985,0,16.5V11h10v5.5C10,18.985,7.985,21,5.5,21z"/><path style="fill:#f0c419" d="M15.5,21h-1c-2.485,0-4.5-2.015-4.5-4.5V11h10v5.5C20,18.985,17.985,21,15.5,21z"/><path style="fill:#d36259" d="M43.5,21h-1c-2.485,0-4.5-2.015-4.5-4.5V11h10v5.5C48,18.985,45.985,21,43.5,21z"/><path style="fill:#f0c419" d="M53.5,21h-1c-2.485,0-4.5-2.015-4.5-4.5V11h10v5.5C58,18.985,55.985,21,53.5,21z"/><path style="fill:#d36259" d="M24.5,21L24.5,21c-2.485,0-4.5-2.015-4.5-4.5V11h9v5.5C29,18.985,26.985,21,24.5,21z"/><path style="fill:#f0c419" d="M33.5,21L33.5,21c-2.485,0-4.5-2.015-4.5-4.5V11h9v5.5C38,18.985,35.985,21,33.5,21z"/><rect style="fill:#7f6e5d" width="58" height="12" x="0" y="43"/><rect style="fill:#cbb292" width="2" height="12" x="4" y="43"/><rect style="fill:#cbb292" width="2" height="12" x="8" y="43"/><rect style="fill:#cbb292" width="2" height="12" x="12" y="43"/><rect style="fill:#cbb292" width="2" height="12" x="16" y="43"/><rect style="fill:#cbb292" width="2" height="12" x="20" y="43"/><rect style="fill:#cbb292" width="2" height="12" x="24" y="43"/><rect style="fill:#cbb292" width="2" height="12" x="28" y="43"/><rect style="fill:#cbb292" width="2" height="12" x="32" y="43"/><rect style="fill:#cbb292" width="2" height="12" x="36" y="43"/><rect style="fill:#cbb292" width="2" height="12" x="40" y="43"/><rect style="fill:#cbb292" width="2" height="12" x="44" y="43"/><rect style="fill:#cbb292" width="2" height="12" x="48" y="43"/><rect style="fill:#cbb292" width="2" height="12" x="52" y="43"/><rect style="fill:#556080" width="4" height="3" x="0" y="55"/><rect style="fill:#556080" width="4" height="3" x="54" y="55"/><path style="fill:#bdc3c7" d="M17.999,39.999L10,32l1.126-1.126c3.796-3.796,9.952-3.796,13.748,0L26,32l-7.999,7.999 C18,40,18,40,17.999,39.999z"/><rect style="fill:#a5a5a4" width="4" height="3" x="16" y="40"/><circle style="fill:#14a085" cx="40" cy="40" r="3"/><circle style="fill:#4c8056" cx="46" cy="40" r="3"/><circle style="fill:#71c285" cx="43" cy="35" r="3"/><path style="fill:#ecf0f1" d="M17.999,39.999c0,0,0.001,0,0.002,0L19,39v-7c0-0.553-0.448-1-1-1s-1,0.447-1,1v7L17.999,39.999z"/><path style="fill:#d1d4d1" d="M25,41H11c-0.552,0-1-0.447-1-1s0.448-1,1-1h14c0.552,0,1,0.447,1,1S25.552,41,25,41z"/><path style="fill:#f3d55b" d="M48,11L48,11l-3-5V0l6.104,0C52.151,0,53,0.849,53,1.896V6l5,5l0,0H48z"/><polygon style="fill:#ed7161" points="38 11 38 11 37 6 37 0 45 0 45 6 48 11 48 11"/><polygon style="fill:#f3d55b" points="29 11 29 11 29 6 29 0 37 0 37 6 38 11 38 11"/></g></svg>