<svg xmlns="http://www.w3.org/2000/svg" xmlns:xlink="http://www.w3.org/1999/xlink" id="Layer_1" x="0" y="0" version="1.1" viewBox="0 0 412 412" xml:space="preserve" style="enable-background:new 0 0 412 412"><path style="fill:#9ce0ff" d="M334,148c17.6,0,32,14.4,32,32v192c0,17.6-14.4,32-32,32H78c-17.6,0-32-14.4-32-32V180	c0-17.6,14.4-32,32-32H334z"/><path style="fill:#00aeef" d="M334,412H78c-22,0-40-18-40-40V180c0-22,18-40,40-40h256c22,0,40,18,40,40v192	C374,394,356,412,334,412z M78,156c-13.2,0-24,10.8-24,24v192c0,13.2,10.8,24,24,24h256c13.2,0,24-10.8,24-24V180	c0-13.2-10.8-24-24-24H78z"/><g><path style="fill:#6ea62a" d="M206,281.2c-4.4,0-8-3.6-8-8V56c0-4.4,3.6-8,8-8s8,3.6,8,8v217.2C214,277.6,210.4,281.2,206,281.2z"/><path style="fill:#6ea62a" d="M206,28c-4.4,0-8-3.6-8-8V8c0-4.4,3.6-8,8-8s8,3.6,8,8v12C214,24.4,210.4,28,206,28z"/><path style="fill:#6ea62a" d="M206,296c-2,0-4-0.8-5.6-2.4l-70.8-70.8c-3.2-3.2-3.2-8,0-11.2s8-3.2,11.2,0l65.2,65.2l65.2-65.2 c3.2-3.2,8-3.2,11.2,0s3.2,8,0,11.2l-70.8,70.8C210,295.2,208,296,206,296z"/></g></svg>